<svg xmlns="http://www.w3.org/2000/svg" viewbox="36 48 0 0" fill="none"><path fill="#D4D4D4" fill-rule="evenodd" d="M36 10v38a1 1 0 0 1-1 1H1a1 1 0 0 1-1-1V2a1 1 0 0 1 1-1h26" clip-rule="evenodd"/><path fill="#fff" fill-rule="evenodd" d="M1 2h26l8 8v38H1V2Z" clip-rule="evenodd"/><path fill="#D4D4D4" fill-rule="evenodd" d="M5.5 16a.5.5 0 0 0 0 1h11a.5.5 0 0 0 0-1h-11Zm0 6a.5.5 0 0 0 0 1h25a.5.5 0 0 0 0-1h-25ZM5 20.5a.5.5 0 0 1 .5-.5h25a.5.5 0 0 1 0 1h-25a.5.5 0 0 1-.5-.5Zm.5 3.5a.5.5 0 0 0 0 1h25a.5.5 0 0 0 0-1h-25ZM5 33.5a.5.5 0 0 1 .5-.5h25a.5.5 0 0 1 0 1h-25a.5.5 0 0 1-.5-.5Zm.5 1.5a.5.5 0 0 0 0 1h25a.5.5 0 0 0 0-1h-25ZM5 37.5a.5.5 0 0 1 .5-.5h10a.5.5 0 0 1 0 1h-10a.5.5 0 0 1-.5-.5Zm.5 1.5a.5.5 0 0 0 0 1h10a.5.5 0 0 0 0-1h-10ZM6 27h10a1 1 0 0 1 1 1v2a1 1 0 0 1-1 1H6a1 1 0 0 1-1-1v-2a1 1 0 0 1 1-1Zm0 3v-2h10v2H6Zm14-3h10a1 1 0 0 1 1 1v2a1 1 0 0 1-1 1H20a1 1 0 0 1-1-1v-2a1 1 0 0 1 1-1Zm0 3v-2h10v2H20Zm0 7h10a1 1 0 0 1 1 1v1a1 1 0 0 1-1 1H20a1 1 0 0 1-1-1v-1a1 1 0 0 1 1-1Zm0 2v-1h10v1H20ZM35.707 9.293l-8-8C27.077.663 26 1.109 26 2v8a1 1 0 0 0 1 1h8c.89 0 1.337-1.077.707-1.707ZM27 10V2l8 8h-8Z" clip-rule="evenodd"/></svg>